<svg id="Capa_1" enable-background="new 0 0 511 511" height="512" viewBox="0 0 511 511" width="512" xmlns="http://www.w3.org/2000/svg"><g><g><g><path d="m255.5 6.983c-96.979 0-156.72 54.703-156.884 54.795 0 0-2.484 3.1-2.948 5.161-3.773 16.75-7.299 39.198-7.299 55.579 0 139.18 117.37 251.981 256.55 251.981 53.595 0 113.224-25.687 153.131-56.571.893-.691 3.725-5.333 3.725-5.333.176-1.074 5.732-23.201 5.732-53.602.001-139.182-112.827-252.01-252.007-252.01z" fill="#dff6fd"/></g><g><path d="m344.897 367.384c-139.18 0-252.008-112.828-252.008-252.008 0-18.397 1.984-36.321 5.727-53.598-57.957 46.172-95.124 117.354-95.124 197.214 0 66.346 25.638 126.703 67.547 171.706l368.91.01c30.206-32.41 52.028-72.884 61.827-118.114-43.048 34.288-97.566 54.79-156.879 54.79z" fill="#c4e2ff"/></g></g><g><g><g><g><path d="m302.456 27.696h-48.049v338.438h117.722v-268.765c0-38.479-31.193-69.673-69.673-69.673z" fill="#fedf30"/></g></g><g><g><g><g><path d="m301.752 0h-77.07v134.126h77.07c22.636 0 40.985-4.453 40.985-27.089v-66.051c0-22.636-18.349-40.986-40.985-40.986z" fill="#fedf30"/></g></g></g></g><g><g><g><g><path d="m226.073 0h-25.266c-22.636 0-40.986 18.35-40.986 40.986v66.051c0 22.636 18.35 27.089 40.986 27.089h25.266z" fill="#fec344"/></g></g></g></g><g><g><path d="m200.092 27.696c-38.479 0-69.673 31.194-69.673 69.673v268.765h122.755l2.7-338.438h-55.782z" fill="#fec344"/></g></g><g><path d="m358.624 345.857h-154.419v159.899c16.564 3.427 33.716 5.244 51.295 5.244 32.521 0 63.713-6.196 92.396-17.514l38.465-19.124c19.795-12.049 37.827-26.759 53.58-43.661v-3.526c0-44.911-36.407-81.318-81.317-81.318z" fill="#fd3581"/></g><g><path d="m287.386 345.857h-104.744c-32.273.015-32.291-.103-36.333.249-42.077 3.104-75.256 38.199-75.256 81.068v3.511c35.082 37.672 81.555 64.592 133.946 75.25v-78.761c0-42.869 33.18-77.965 75.257-81.068 1.95-.17 2.974-.23 7.13-.249z" fill="#e41e7f"/></g><g><g><path d="m250.36 388.722 5.137-3.164v-65.607l-91.406 25.902c4.038 41.807 50.508 64.899 86.269 42.869z" fill="#f9f3f1"/></g></g><g><g><path d="m259.935 388.722-5.137-3.164v-65.607l91.406 25.902c-4.038 41.807-50.508 64.899-86.269 42.869z" fill="#fff"/></g></g><g><g><g><g><path d="m289.841 351.213c0 18.968-15.377 34.345-34.345 34.345-18.968 0-34.345-15.377-34.345-34.345v-76.927h68.689v76.927z" fill="#f79480"/></g></g></g></g><g><g><g><g><path d="m348.323 126.361c-.227-22.849-18.813-41.252-41.663-41.252h-49.501c-27.583 0-52.651 10.755-71.249 28.296v141.528c0 35.566 28.575 64.746 64.14 65.013.249.002.498.003.747.003 54.384 0 98.471-44.087 98.471-98.471z" fill="#fab9af"/></g></g></g></g><g><g><path d="m221.152 336.193c1.6.132 3.211.225 4.842.237.249.002.498.003.747.003 24.011 0 46.011-8.598 63.1-22.878v-46.594h-68.689z" fill="#ea806b"/></g></g><g><g><g><g><path d="m348.323 126.361c-.227-22.849-18.813-41.252-41.663-41.252h-49.501c-27.583 0-52.651 10.755-71.249 28.296v141.528c0 35.566 28.575 64.746 64.14 65.013.249.002.498.003.747.003 54.384 0 98.471-44.087 98.471-98.471z" fill="#fab9af"/></g></g></g></g><g><g><g><g><path d="m372.129 186.526c0 12.626-10.236 22.862-22.862 22.862v-57.956c12.626 0 22.862 10.236 22.862 22.862z" fill="#f79480"/></g></g></g></g><g><g><g><g><path d="m358.546 182.892c0 5.124-4.154 9.278-9.278 9.278v-23.521c5.124 0 9.278 4.154 9.278 9.278z" fill="#fd5ca6"/></g></g></g></g><g><g><g><g><path d="m130.429 186.526c0 12.626 10.236 22.862 22.862 22.862v-57.956c-12.626 0-22.862 10.236-22.862 22.862z" fill="#f79480"/></g></g></g></g><g><g><g><g><path d="m143.815 182.945c0 5.233 4.242 9.476 9.476 9.476v-24.022c-5.233 0-9.476 4.242-9.476 9.476z" fill="#fd5ca6"/></g></g></g></g><g><g><g><g><path d="m209.633 184.77v8.375c0 4.485 3.636 8.121 8.121 8.121s8.121-3.636 8.121-8.121v-8.375z" fill="#f79480"/></g></g></g></g><g><g><g><g><path d="m275.955 184.77v8.375c0 4.485 3.636 8.121 8.121 8.121s8.121-3.636 8.121-8.121v-8.375z" fill="#f79480"/></g></g></g></g><g><g><g><g><path d="m284.076 194.499c-4.485 0-8.121-3.636-8.121-8.121v-7.598l3.26-4.897-3.26-4.897v-4.819c0-4.485 3.636-8.121 8.121-8.121s8.121 3.636 8.121 8.121v22.211c0 4.485-3.636 8.121-8.121 8.121z" fill="#00366d"/></g></g></g></g><g><g><g><g><path d="m238.603 208.415c-2.019 7.114 1.65 14.863 8.666 17.199 1.412.47 2.922.725 4.492.725s3.08-.255 4.492-.725c7.016-2.336 10.685-10.085 8.667-17.199l-9.847-34.697c-.947-3.337-5.677-3.337-6.624 0z" fill="#f79480"/></g></g></g></g><g><g><path d="m259.891 85.283c-58.837-.113-106.6 47.541-106.6 106.378v30.783c0 59.934 53.787 106.297 114.052 96.094-46.007-7.827-81.044-47.857-81.044-96.094.025-43.179-.004-57.22-.008-66.985-.003-7.731 6.318-14.069 14.049-14.086h47.272c27.503 0 49.8-28.296 49.8-55.8-.001-.001-7.184-.232-37.521-.29z" fill="#f79480"/></g></g><g><g><path d="m290.936 90.384c22.277 0 45.271 23.873 45.271 46.15l8.349-52.011-52.36.953z" fill="#f79480"/></g></g><g><g><path d="m203.658 45.756c-27.817 0-50.367 22.55-50.367 50.367v32.481 63.057c7.213 0 13.06-5.847 13.06-13.06v-15.998c0-18.777 15.222-33.999 33.999-33.999h47.262c27.504 0 49.8-22.296 49.8-49.8v-33.048z" fill="#fedf30"/></g></g><g><g><path d="m295.647 85.109c22.277 0 40.561 19.071 40.561 41.348v52.143c0 7.213 5.847 13.06 13.06 13.06v-110.412z" fill="#fedf30"/></g></g><g><g><path d="m279.215 182.04c-1.8 0-3.26-1.459-3.26-3.26v-9.794c0-1.8 1.459-3.26 3.26-3.26 1.8 0 3.26 1.459 3.26 3.26v9.794c-.001 1.801-1.46 3.26-3.26 3.26z" fill="#fff"/></g></g><g><g><g><path d="m257.895 277.483c-22.814 0-41.375-15.26-41.375-34.017 0-3.59 2.91-6.5 6.5-6.5s6.5 2.91 6.5 6.5c0 11.589 12.729 21.017 28.375 21.017 3.59 0 6.5 2.91 6.5 6.5s-2.91 6.5-6.5 6.5z" fill="#f79480"/></g></g></g><g><g><ellipse cx="195.672" cy="219.809" fill="#f79480" rx="24.773" ry="17.421"/></g></g><g><g><ellipse cx="305.11" cy="221.417" fill="#f79480" rx="24.773" ry="17.421"/></g></g><g><g><g><path d="m206.627 170.688c-3.11 0-6.22-1.187-9.117-3.559-1.923-1.575-2.204-4.41-.63-6.333 1.574-1.922 4.409-2.206 6.333-.63 2.521 2.065 4.31 2.063 6.827 0 1.925-1.574 4.759-1.292 6.333.63 1.574 1.923 1.293 4.758-.63 6.333-2.897 2.372-6.006 3.559-9.116 3.559z" fill="#00366d"/></g></g></g><g><g><g><path d="m294.651 169.688c-3.109 0-6.219-1.187-9.116-3.559-1.923-1.575-2.204-4.41-.63-6.333 1.574-1.922 4.409-2.205 6.333-.63 2.519 2.063 4.307 2.065 6.827 0 1.924-1.573 4.759-1.292 6.333.63 1.574 1.923 1.293 4.758-.63 6.333-2.897 2.372-6.007 3.559-9.117 3.559z" fill="#00366d"/></g></g></g><g><g><g><g><path d="m217.754 194.499c-4.485 0-8.121-3.636-8.121-8.121v-5.989l3.26-4.897-3.26-4.897v-6.427c0-4.485 3.636-8.121 8.121-8.121s8.121 3.636 8.121 8.121v22.211c0 4.484-3.636 8.12-8.121 8.12z" fill="#00366d"/></g></g></g></g><g><g><path d="m212.893 183.648c-1.8 0-3.26-1.459-3.26-3.26v-9.794c0-1.8 1.459-3.26 3.26-3.26 1.8 0 3.26 1.459 3.26 3.26v9.794c-.001 1.801-1.46 3.26-3.26 3.26z" fill="#fff"/></g></g></g><g><path d="m300.006 441.272c-3.973 0-7.193 3.221-7.193 7.193v37.819c0 3.973 3.22 7.193 7.193 7.193h47.886c7.507-2.961 14.841-6.273 21.983-9.917z" fill="#e41e7f"/></g><g><path d="m386.358 438.558c0-3.973-3.22-7.194-7.193-7.194h-79.159c-3.973 0-7.193 3.221-7.193 7.194v37.819c0 3.973 3.22 7.193 7.193 7.193h69.874c5.618-2.866 11.11-5.946 16.479-9.213v-35.799z" fill="#6cf5c2"/></g><g><g><path d="m299.252 471.926c0-.129.043-.301.086-.473l7.998-26.229c.473-1.505 2.408-2.236 4.386-2.236 1.979 0 3.913.731 4.386 2.236l8.041 26.229c.043.172.086.344.086.473 0 1.591-2.451 2.752-4.3 2.752-1.075 0-1.935-.344-2.192-1.247l-1.463-5.375h-9.072l-1.462 5.375c-.258.903-1.118 1.247-2.193 1.247-1.849 0-4.301-1.161-4.301-2.752zm15.609-9.03-3.139-11.523-3.139 11.523z" fill="#af66da"/></g><g><path d="m341.865 463.541c-.56.946-1.419 1.247-2.236 1.247-.774 0-1.591-.258-2.106-1.247l-4.085-7.482v16.555c0 1.377-1.678 2.064-3.354 2.064s-3.354-.688-3.354-2.064v-26.014c0-2.451 1.677-3.354 3.354-3.354 2.408 0 3.44.258 5.203 3.354l4.429 7.739 4.429-7.739c1.764-3.097 2.795-3.354 5.203-3.354 1.72 0 3.354.903 3.354 3.354v26.014c0 1.377-1.678 2.064-3.354 2.064s-3.354-.688-3.354-2.064v-16.124z" fill="#af66da"/></g><g><path d="m364.353 461.821c0-.259-.086-.474-.172-.603l-8.901-14.748c-.086-.173-.086-.345-.086-.474 0-1.591 2.709-2.752 4.558-2.752 1.075 0 1.462.43 1.936 1.247l6.02 11.051 5.978-11.051c.43-.817.859-1.247 1.935-1.247 1.849 0 4.558 1.161 4.558 2.752 0 .129 0 .301-.086.474l-8.857 14.748c-.086.129-.172.344-.172.603v10.792c0 1.377-1.678 2.064-3.354 2.064s-3.354-.688-3.354-2.064v-10.792z" fill="#af66da"/></g></g></g></g></svg>